<?xml version="1.0" encoding="utf-8" standalone="no"?>
<!DOCTYPE svg PUBLIC "-//W3C//DTD SVG 1.1//EN"
  "http://www.w3.org/Graphics/SVG/1.1/DTD/svg11.dtd">
<svg xmlns:xlink="http://www.w3.org/1999/xlink" width="559.524687pt" height="378.83625pt" viewBox="0 0 559.524687 378.83625" xmlns="http://www.w3.org/2000/svg" version="1.1">
 <metadata>
  <rdf:RDF xmlns:dc="http://purl.org/dc/elements/1.1/" xmlns:cc="http://creativecommons.org/ns#" xmlns:rdf="http://www.w3.org/1999/02/22-rdf-syntax-ns#">
   <cc:Work>
    <dc:type rdf:resource="http://purl.org/dc/dcmitype/StillImage"/>
    <dc:date>2026-04-22T09:46:19.586831</dc:date>
    <dc:format>image/svg+xml</dc:format>
    <dc:creator>
     <cc:Agent>
      <dc:title>Matplotlib v3.10.8, https://matplotlib.org/</dc:title>
     </cc:Agent>
    </dc:creator>
   </cc:Work>
  </rdf:RDF>
 </metadata>
 <defs>
  <style type="text/css">*{stroke-linejoin: round; stroke-linecap: butt}</style>
 </defs>
 <g id="figure_1">
  <g id="patch_1">
   <path d="M 0 378.83625 
L 559.524687 378.83625 
L 559.524687 0 
L 0 0 
z
" style="fill: #ffffff"/>
  </g>
  <g id="axes_1">
   <g id="patch_2">
    <path d="M 30.103125 354.958125 
L 476.503125 354.958125 
L 476.503125 22.318125 
L 30.103125 22.318125 
z
" style="fill: #ffffff"/>
   </g>
   <g id="PathCollection_1">
    <defs>
     <path id="C0_0_64f1373012" d="M 0 1.581139 
C 0.419323 1.581139 0.821528 1.41454 1.118034 1.118034 
C 1.41454 0.821528 1.581139 0.419323 1.581139 -0 
C 1.581139 -0.419323 1.41454 -0.821528 1.118034 -1.118034 
C 0.821528 -1.41454 0.419323 -1.581139 0 -1.581139 
C -0.419323 -1.581139 -0.821528 -1.41454 -1.118034 -1.118034 
C -1.41454 -0.821528 -1.581139 -0.419323 -1.581139 0 
C -1.581139 0.419323 -1.41454 0.821528 -1.118034 1.118034 
C -0.821528 1.41454 -0.419323 1.581139 0 1.581139 
z
"/>
    </defs>
    <g clip-path="url(#pf4064a3eda)">
     <use xlink:href="#C0_0_64f1373012" x="50.394034" y="188.373813" style="fill: #b40426; stroke: #b40426"/>
    </g>
    <g clip-path="url(#pf4064a3eda)">
     <use xlink:href="#C0_0_64f1373012" x="91.315538" y="260.045778" style="fill: #b40426; stroke: #b40426"/>
    </g>
    <g clip-path="url(#pf4064a3eda)">
     <use xlink:href="#C0_0_64f1373012" x="120.311478" y="319.535231" style="fill: #b40426; stroke: #b40426"/>
    </g>
    <g clip-path="url(#pf4064a3eda)">
     <use xlink:href="#C0_0_64f1373012" x="111.182548" y="294.028853" style="fill: #b40426; stroke: #b40426"/>
    </g>
    <g clip-path="url(#pf4064a3eda)">
     <use xlink:href="#C0_0_64f1373012" x="188.783156" y="239.904169" style="fill: #b40426; stroke: #b40426"/>
    </g>
    <g clip-path="url(#pf4064a3eda)">
     <use xlink:href="#C0_0_64f1373012" x="239.287615" y="126.37104" style="fill: #b40426; stroke: #b40426"/>
    </g>
    <g clip-path="url(#pf4064a3eda)">
     <use xlink:href="#C0_0_64f1373012" x="227.078147" y="86.003793" style="fill: #b40426; stroke: #b40426"/>
    </g>
    <g clip-path="url(#pf4064a3eda)">
     <use xlink:href="#C0_0_64f1373012" x="70.147477" y="187.031827" style="fill: #b40426; stroke: #b40426"/>
    </g>
    <g clip-path="url(#pf4064a3eda)">
     <use xlink:href="#C0_0_64f1373012" x="157.509566" y="109.19287" style="fill: #b40426; stroke: #b40426"/>
    </g>
    <g clip-path="url(#pf4064a3eda)">
     <use xlink:href="#C0_0_64f1373012" x="171.495179" y="196.707379" style="fill: #b40426; stroke: #b40426"/>
    </g>
    <g clip-path="url(#pf4064a3eda)">
     <use xlink:href="#C0_0_64f1373012" x="156.750906" y="269.073382" style="fill: #b40426; stroke: #b40426"/>
    </g>
    <g clip-path="url(#pf4064a3eda)">
     <use xlink:href="#C0_0_64f1373012" x="119.21795" y="149.70742" style="fill: #b40426; stroke: #b40426"/>
    </g>
    <g clip-path="url(#pf4064a3eda)">
     <use xlink:href="#C0_0_64f1373012" x="297.524876" y="150.275813" style="fill: #b40426; stroke: #b40426"/>
    </g>
    <g clip-path="url(#pf4064a3eda)">
     <use xlink:href="#C0_0_64f1373012" x="161.745803" y="154.504196" style="fill: #b40426; stroke: #b40426"/>
    </g>
    <g clip-path="url(#pf4064a3eda)">
     <use xlink:href="#C0_0_64f1373012" x="96.149464" y="179.999758" style="fill: #b40426; stroke: #b40426"/>
    </g>
    <g clip-path="url(#pf4064a3eda)">
     <use xlink:href="#C0_0_64f1373012" x="110.91705" y="127.844749" style="fill: #b40426; stroke: #b40426"/>
    </g>
    <g clip-path="url(#pf4064a3eda)">
     <use xlink:href="#C0_0_64f1373012" x="198.355584" y="170.027507" style="fill: #b40426; stroke: #b40426"/>
    </g>
    <g clip-path="url(#pf4064a3eda)">
     <use xlink:href="#C0_0_64f1373012" x="153.547449" y="121.114682" style="fill: #b40426; stroke: #b40426"/>
    </g>
    <g clip-path="url(#pf4064a3eda)">
     <use xlink:href="#C0_0_64f1373012" x="106.765122" y="176.758754" style="fill: #b40426; stroke: #b40426"/>
    </g>
    <g clip-path="url(#pf4064a3eda)">
     <use xlink:href="#C0_0_64f1373012" x="218.567572" y="114.363042" style="fill: #b40426; stroke: #b40426"/>
    </g>
    <g clip-path="url(#pf4064a3eda)">
     <use xlink:href="#C0_0_64f1373012" x="237.831941" y="185.074423" style="fill: #b40426; stroke: #b40426"/>
    </g>
    <g clip-path="url(#pf4064a3eda)">
     <use xlink:href="#C0_0_64f1373012" x="155.051454" y="338.216183" style="fill: #b40426; stroke: #b40426"/>
    </g>
    <g clip-path="url(#pf4064a3eda)">
     <use xlink:href="#C0_0_64f1373012" x="84.663405" y="240.229216" style="fill: #b40426; stroke: #b40426"/>
    </g>
    <g clip-path="url(#pf4064a3eda)">
     <use xlink:href="#C0_0_64f1373012" x="63.633217" y="97.710341" style="fill: #b40426; stroke: #b40426"/>
    </g>
    <g clip-path="url(#pf4064a3eda)">
     <use xlink:href="#C0_0_64f1373012" x="226.181722" y="186.958341" style="fill: #b40426; stroke: #b40426"/>
    </g>
    <g clip-path="url(#pf4064a3eda)">
     <use xlink:href="#C0_0_64f1373012" x="131.255487" y="229.975197" style="fill: #b40426; stroke: #b40426"/>
    </g>
    <g clip-path="url(#pf4064a3eda)">
     <use xlink:href="#C0_0_64f1373012" x="320.159746" y="295.202843" style="fill: #3b4cc0; stroke: #3b4cc0"/>
    </g>
    <g clip-path="url(#pf4064a3eda)">
     <use xlink:href="#C0_0_64f1373012" x="366.121161" y="151.880449" style="fill: #3b4cc0; stroke: #3b4cc0"/>
    </g>
    <g clip-path="url(#pf4064a3eda)">
     <use xlink:href="#C0_0_64f1373012" x="215.630728" y="217.382891" style="fill: #3b4cc0; stroke: #3b4cc0"/>
    </g>
    <g clip-path="url(#pf4064a3eda)">
     <use xlink:href="#C0_0_64f1373012" x="301.281932" y="233.058414" style="fill: #3b4cc0; stroke: #3b4cc0"/>
    </g>
    <g clip-path="url(#pf4064a3eda)">
     <use xlink:href="#C0_0_64f1373012" x="283.555286" y="232.50856" style="fill: #3b4cc0; stroke: #3b4cc0"/>
    </g>
    <g clip-path="url(#pf4064a3eda)">
     <use xlink:href="#C0_0_64f1373012" x="264.226703" y="225.655877" style="fill: #3b4cc0; stroke: #3b4cc0"/>
    </g>
    <g clip-path="url(#pf4064a3eda)">
     <use xlink:href="#C0_0_64f1373012" x="407.725599" y="218.109703" style="fill: #3b4cc0; stroke: #3b4cc0"/>
    </g>
    <g clip-path="url(#pf4064a3eda)">
     <use xlink:href="#C0_0_64f1373012" x="362.536507" y="331.939131" style="fill: #3b4cc0; stroke: #3b4cc0"/>
    </g>
    <g clip-path="url(#pf4064a3eda)">
     <use xlink:href="#C0_0_64f1373012" x="279.656301" y="300.64569" style="fill: #3b4cc0; stroke: #3b4cc0"/>
    </g>
    <g clip-path="url(#pf4064a3eda)">
     <use xlink:href="#C0_0_64f1373012" x="291.206838" y="269.860306" style="fill: #3b4cc0; stroke: #3b4cc0"/>
    </g>
    <g clip-path="url(#pf4064a3eda)">
     <use xlink:href="#C0_0_64f1373012" x="338.516228" y="320.724237" style="fill: #3b4cc0; stroke: #3b4cc0"/>
    </g>
    <g clip-path="url(#pf4064a3eda)">
     <use xlink:href="#C0_0_64f1373012" x="406.368612" y="196.121334" style="fill: #3b4cc0; stroke: #3b4cc0"/>
    </g>
    <g clip-path="url(#pf4064a3eda)">
     <use xlink:href="#C0_0_64f1373012" x="456.212216" y="240.339334" style="fill: #3b4cc0; stroke: #3b4cc0"/>
    </g>
    <g clip-path="url(#pf4064a3eda)">
     <use xlink:href="#C0_0_64f1373012" x="324.363063" y="181.910594" style="fill: #3b4cc0; stroke: #3b4cc0"/>
    </g>
    <g clip-path="url(#pf4064a3eda)">
     <use xlink:href="#C0_0_64f1373012" x="378.039166" y="160.648878" style="fill: #3b4cc0; stroke: #3b4cc0"/>
    </g>
    <g clip-path="url(#pf4064a3eda)">
     <use xlink:href="#C0_0_64f1373012" x="239.895087" y="339.838125" style="fill: #3b4cc0; stroke: #3b4cc0"/>
    </g>
    <g clip-path="url(#pf4064a3eda)">
     <use xlink:href="#C0_0_64f1373012" x="262.121031" y="184.885887" style="fill: #3b4cc0; stroke: #3b4cc0"/>
    </g>
    <g clip-path="url(#pf4064a3eda)">
     <use xlink:href="#C0_0_64f1373012" x="365.549442" y="242.362425" style="fill: #3b4cc0; stroke: #3b4cc0"/>
    </g>
    <g clip-path="url(#pf4064a3eda)">
     <use xlink:href="#C0_0_64f1373012" x="384.917579" y="200.468147" style="fill: #3b4cc0; stroke: #3b4cc0"/>
    </g>
    <g clip-path="url(#pf4064a3eda)">
     <use xlink:href="#C0_0_64f1373012" x="320.277556" y="202.743717" style="fill: #3b4cc0; stroke: #3b4cc0"/>
    </g>
    <g clip-path="url(#pf4064a3eda)">
     <use xlink:href="#C0_0_64f1373012" x="291.102489" y="37.438125" style="fill: #3b4cc0; stroke: #3b4cc0"/>
    </g>
    <g clip-path="url(#pf4064a3eda)">
     <use xlink:href="#C0_0_64f1373012" x="314.414166" y="190.042042" style="fill: #3b4cc0; stroke: #3b4cc0"/>
    </g>
    <g clip-path="url(#pf4064a3eda)">
     <use xlink:href="#C0_0_64f1373012" x="385.474835" y="167.064945" style="fill: #3b4cc0; stroke: #3b4cc0"/>
    </g>
    <g clip-path="url(#pf4064a3eda)">
     <use xlink:href="#C0_0_64f1373012" x="360.179979" y="298.088057" style="fill: #3b4cc0; stroke: #3b4cc0"/>
    </g>
   </g>
   <g id="matplotlib.axis_1">
    <g id="xtick_1">
     <g id="line2d_1">
      <defs>
       <path id="med007d5b09" d="M 0 0 
L 0 3.5 
" style="stroke: #000000; stroke-width: 0.8"/>
      </defs>
      <g>
       <use xlink:href="#med007d5b09" x="39.845687" y="354.958125" style="stroke: #000000; stroke-width: 0.8"/>
      </g>
     </g>
     <g id="text_1">
      <!-- −5 -->
      <g transform="translate(32.474594 369.556562) scale(0.1 -0.1)">
       <defs>
        <path id="DejaVuSans-2212" d="M 678 2272 
L 4684 2272 
L 4684 1741 
L 678 1741 
L 678 2272 
z
" transform="scale(0.015625)"/>
        <path id="DejaVuSans-35" d="M 691 4666 
L 3169 4666 
L 3169 4134 
L 1269 4134 
L 1269 2991 
Q 1406 3038 1543 3061 
Q 1681 3084 1819 3084 
Q 2600 3084 3056 2656 
Q 3513 2228 3513 1497 
Q 3513 744 3044 326 
Q 2575 -91 1722 -91 
Q 1428 -91 1123 -41 
Q 819 9 494 109 
L 494 744 
Q 775 591 1075 516 
Q 1375 441 1709 441 
Q 2250 441 2565 725 
Q 2881 1009 2881 1497 
Q 2881 1984 2565 2268 
Q 2250 2553 1709 2553 
Q 1456 2553 1204 2497 
Q 953 2441 691 2322 
L 691 4666 
z
" transform="scale(0.015625)"/>
       </defs>
       <use xlink:href="#DejaVuSans-2212"/>
       <use xlink:href="#DejaVuSans-35" transform="translate(83.789062 0)"/>
      </g>
     </g>
    </g>
    <g id="xtick_2">
     <g id="line2d_2">
      <g>
       <use xlink:href="#med007d5b09" x="104.777492" y="354.958125" style="stroke: #000000; stroke-width: 0.8"/>
      </g>
     </g>
     <g id="text_2">
      <!-- −4 -->
      <g transform="translate(97.406398 369.556562) scale(0.1 -0.1)">
       <defs>
        <path id="DejaVuSans-34" d="M 2419 4116 
L 825 1625 
L 2419 1625 
L 2419 4116 
z
M 2253 4666 
L 3047 4666 
L 3047 1625 
L 3713 1625 
L 3713 1100 
L 3047 1100 
L 3047 0 
L 2419 0 
L 2419 1100 
L 313 1100 
L 313 1709 
L 2253 4666 
z
" transform="scale(0.015625)"/>
       </defs>
       <use xlink:href="#DejaVuSans-2212"/>
       <use xlink:href="#DejaVuSans-34" transform="translate(83.789062 0)"/>
      </g>
     </g>
    </g>
    <g id="xtick_3">
     <g id="line2d_3">
      <g>
       <use xlink:href="#med007d5b09" x="169.709296" y="354.958125" style="stroke: #000000; stroke-width: 0.8"/>
      </g>
     </g>
     <g id="text_3">
      <!-- −3 -->
      <g transform="translate(162.338203 369.556562) scale(0.1 -0.1)">
       <defs>
        <path id="DejaVuSans-33" d="M 2597 2516 
Q 3050 2419 3304 2112 
Q 3559 1806 3559 1356 
Q 3559 666 3084 287 
Q 2609 -91 1734 -91 
Q 1441 -91 1130 -33 
Q 819 25 488 141 
L 488 750 
Q 750 597 1062 519 
Q 1375 441 1716 441 
Q 2309 441 2620 675 
Q 2931 909 2931 1356 
Q 2931 1769 2642 2001 
Q 2353 2234 1838 2234 
L 1294 2234 
L 1294 2753 
L 1863 2753 
Q 2328 2753 2575 2939 
Q 2822 3125 2822 3475 
Q 2822 3834 2567 4026 
Q 2313 4219 1838 4219 
Q 1578 4219 1281 4162 
Q 984 4106 628 3988 
L 628 4550 
Q 988 4650 1302 4700 
Q 1616 4750 1894 4750 
Q 2613 4750 3031 4423 
Q 3450 4097 3450 3541 
Q 3450 3153 3228 2886 
Q 3006 2619 2597 2516 
z
" transform="scale(0.015625)"/>
       </defs>
       <use xlink:href="#DejaVuSans-2212"/>
       <use xlink:href="#DejaVuSans-33" transform="translate(83.789062 0)"/>
      </g>
     </g>
    </g>
    <g id="xtick_4">
     <g id="line2d_4">
      <g>
       <use xlink:href="#med007d5b09" x="234.641101" y="354.958125" style="stroke: #000000; stroke-width: 0.8"/>
      </g>
     </g>
     <g id="text_4">
      <!-- −2 -->
      <g transform="translate(227.270007 369.556562) scale(0.1 -0.1)">
       <defs>
        <path id="DejaVuSans-32" d="M 1228 531 
L 3431 531 
L 3431 0 
L 469 0 
L 469 531 
Q 828 903 1448 1529 
Q 2069 2156 2228 2338 
Q 2531 2678 2651 2914 
Q 2772 3150 2772 3378 
Q 2772 3750 2511 3984 
Q 2250 4219 1831 4219 
Q 1534 4219 1204 4116 
Q 875 4013 500 3803 
L 500 4441 
Q 881 4594 1212 4672 
Q 1544 4750 1819 4750 
Q 2544 4750 2975 4387 
Q 3406 4025 3406 3419 
Q 3406 3131 3298 2873 
Q 3191 2616 2906 2266 
Q 2828 2175 2409 1742 
Q 1991 1309 1228 531 
z
" transform="scale(0.015625)"/>
       </defs>
       <use xlink:href="#DejaVuSans-2212"/>
       <use xlink:href="#DejaVuSans-32" transform="translate(83.789062 0)"/>
      </g>
     </g>
    </g>
    <g id="xtick_5">
     <g id="line2d_5">
      <g>
       <use xlink:href="#med007d5b09" x="299.572905" y="354.958125" style="stroke: #000000; stroke-width: 0.8"/>
      </g>
     </g>
     <g id="text_5">
      <!-- −1 -->
      <g transform="translate(292.201812 369.556562) scale(0.1 -0.1)">
       <defs>
        <path id="DejaVuSans-31" d="M 794 531 
L 1825 531 
L 1825 4091 
L 703 3866 
L 703 4441 
L 1819 4666 
L 2450 4666 
L 2450 531 
L 3481 531 
L 3481 0 
L 794 0 
L 794 531 
z
" transform="scale(0.015625)"/>
       </defs>
       <use xlink:href="#DejaVuSans-2212"/>
       <use xlink:href="#DejaVuSans-31" transform="translate(83.789062 0)"/>
      </g>
     </g>
    </g>
    <g id="xtick_6">
     <g id="line2d_6">
      <g>
       <use xlink:href="#med007d5b09" x="364.50471" y="354.958125" style="stroke: #000000; stroke-width: 0.8"/>
      </g>
     </g>
     <g id="text_6">
      <!-- 0 -->
      <g transform="translate(361.32346 369.556562) scale(0.1 -0.1)">
       <defs>
        <path id="DejaVuSans-30" d="M 2034 4250 
Q 1547 4250 1301 3770 
Q 1056 3291 1056 2328 
Q 1056 1369 1301 889 
Q 1547 409 2034 409 
Q 2525 409 2770 889 
Q 3016 1369 3016 2328 
Q 3016 3291 2770 3770 
Q 2525 4250 2034 4250 
z
M 2034 4750 
Q 2819 4750 3233 4129 
Q 3647 3509 3647 2328 
Q 3647 1150 3233 529 
Q 2819 -91 2034 -91 
Q 1250 -91 836 529 
Q 422 1150 422 2328 
Q 422 3509 836 4129 
Q 1250 4750 2034 4750 
z
" transform="scale(0.015625)"/>
       </defs>
       <use xlink:href="#DejaVuSans-30"/>
      </g>
     </g>
    </g>
    <g id="xtick_7">
     <g id="line2d_7">
      <g>
       <use xlink:href="#med007d5b09" x="429.436514" y="354.958125" style="stroke: #000000; stroke-width: 0.8"/>
      </g>
     </g>
     <g id="text_7">
      <!-- 1 -->
      <g transform="translate(426.255264 369.556562) scale(0.1 -0.1)">
       <use xlink:href="#DejaVuSans-31"/>
      </g>
     </g>
    </g>
   </g>
   <g id="matplotlib.axis_2">
    <g id="ytick_1">
     <g id="line2d_8">
      <defs>
       <path id="m01ecbdcb90" d="M 0 0 
L -3.5 0 
" style="stroke: #000000; stroke-width: 0.8"/>
      </defs>
      <g>
       <use xlink:href="#m01ecbdcb90" x="30.103125" y="314.549817" style="stroke: #000000; stroke-width: 0.8"/>
      </g>
     </g>
     <g id="text_8">
      <!-- 0.0 -->
      <g transform="translate(7.2 318.349035) scale(0.1 -0.1)">
       <defs>
        <path id="DejaVuSans-2e" d="M 684 794 
L 1344 794 
L 1344 0 
L 684 0 
L 684 794 
z
" transform="scale(0.015625)"/>
       </defs>
       <use xlink:href="#DejaVuSans-30"/>
       <use xlink:href="#DejaVuSans-2e" transform="translate(63.623047 0)"/>
       <use xlink:href="#DejaVuSans-30" transform="translate(95.410156 0)"/>
      </g>
     </g>
    </g>
    <g id="ytick_2">
     <g id="line2d_9">
      <g>
       <use xlink:href="#m01ecbdcb90" x="30.103125" y="269.976323" style="stroke: #000000; stroke-width: 0.8"/>
      </g>
     </g>
     <g id="text_9">
      <!-- 0.5 -->
      <g transform="translate(7.2 273.775541) scale(0.1 -0.1)">
       <use xlink:href="#DejaVuSans-30"/>
       <use xlink:href="#DejaVuSans-2e" transform="translate(63.623047 0)"/>
       <use xlink:href="#DejaVuSans-35" transform="translate(95.410156 0)"/>
      </g>
     </g>
    </g>
    <g id="ytick_3">
     <g id="line2d_10">
      <g>
       <use xlink:href="#m01ecbdcb90" x="30.103125" y="225.402828" style="stroke: #000000; stroke-width: 0.8"/>
      </g>
     </g>
     <g id="text_10">
      <!-- 1.0 -->
      <g transform="translate(7.2 229.202047) scale(0.1 -0.1)">
       <use xlink:href="#DejaVuSans-31"/>
       <use xlink:href="#DejaVuSans-2e" transform="translate(63.623047 0)"/>
       <use xlink:href="#DejaVuSans-30" transform="translate(95.410156 0)"/>
      </g>
     </g>
    </g>
    <g id="ytick_4">
     <g id="line2d_11">
      <g>
       <use xlink:href="#m01ecbdcb90" x="30.103125" y="180.829334" style="stroke: #000000; stroke-width: 0.8"/>
      </g>
     </g>
     <g id="text_11">
      <!-- 1.5 -->
      <g transform="translate(7.2 184.628553) scale(0.1 -0.1)">
       <use xlink:href="#DejaVuSans-31"/>
       <use xlink:href="#DejaVuSans-2e" transform="translate(63.623047 0)"/>
       <use xlink:href="#DejaVuSans-35" transform="translate(95.410156 0)"/>
      </g>
     </g>
    </g>
    <g id="ytick_5">
     <g id="line2d_12">
      <g>
       <use xlink:href="#m01ecbdcb90" x="30.103125" y="136.25584" style="stroke: #000000; stroke-width: 0.8"/>
      </g>
     </g>
     <g id="text_12">
      <!-- 2.0 -->
      <g transform="translate(7.2 140.055059) scale(0.1 -0.1)">
       <use xlink:href="#DejaVuSans-32"/>
       <use xlink:href="#DejaVuSans-2e" transform="translate(63.623047 0)"/>
       <use xlink:href="#DejaVuSans-30" transform="translate(95.410156 0)"/>
      </g>
     </g>
    </g>
    <g id="ytick_6">
     <g id="line2d_13">
      <g>
       <use xlink:href="#m01ecbdcb90" x="30.103125" y="91.682346" style="stroke: #000000; stroke-width: 0.8"/>
      </g>
     </g>
     <g id="text_13">
      <!-- 2.5 -->
      <g transform="translate(7.2 95.481565) scale(0.1 -0.1)">
       <use xlink:href="#DejaVuSans-32"/>
       <use xlink:href="#DejaVuSans-2e" transform="translate(63.623047 0)"/>
       <use xlink:href="#DejaVuSans-35" transform="translate(95.410156 0)"/>
      </g>
     </g>
    </g>
    <g id="ytick_7">
     <g id="line2d_14">
      <g>
       <use xlink:href="#m01ecbdcb90" x="30.103125" y="47.108852" style="stroke: #000000; stroke-width: 0.8"/>
      </g>
     </g>
     <g id="text_14">
      <!-- 3.0 -->
      <g transform="translate(7.2 50.908071) scale(0.1 -0.1)">
       <use xlink:href="#DejaVuSans-33"/>
       <use xlink:href="#DejaVuSans-2e" transform="translate(63.623047 0)"/>
       <use xlink:href="#DejaVuSans-30" transform="translate(95.410156 0)"/>
      </g>
     </g>
    </g>
   </g>
   <g id="patch_3">
    <path d="M 30.103125 354.958125 
L 30.103125 22.318125 
" style="fill: none; stroke: #000000; stroke-width: 0.8; stroke-linejoin: miter; stroke-linecap: square"/>
   </g>
   <g id="patch_4">
    <path d="M 476.503125 354.958125 
L 476.503125 22.318125 
" style="fill: none; stroke: #000000; stroke-width: 0.8; stroke-linejoin: miter; stroke-linecap: square"/>
   </g>
   <g id="patch_5">
    <path d="M 30.103125 354.958125 
L 476.503125 354.958125 
" style="fill: none; stroke: #000000; stroke-width: 0.8; stroke-linejoin: miter; stroke-linecap: square"/>
   </g>
   <g id="patch_6">
    <path d="M 30.103125 22.318125 
L 476.503125 22.318125 
" style="fill: none; stroke: #000000; stroke-width: 0.8; stroke-linejoin: miter; stroke-linecap: square"/>
   </g>
   <g id="text_15">
    <!-- t-SNE (AE) - Language -->
    <g transform="translate(186.6225 16.318125) scale(0.12 -0.12)">
     <defs>
      <path id="DejaVuSans-74" d="M 1172 4494 
L 1172 3500 
L 2356 3500 
L 2356 3053 
L 1172 3053 
L 1172 1153 
Q 1172 725 1289 603 
Q 1406 481 1766 481 
L 2356 481 
L 2356 0 
L 1766 0 
Q 1100 0 847 248 
Q 594 497 594 1153 
L 594 3053 
L 172 3053 
L 172 3500 
L 594 3500 
L 594 4494 
L 1172 4494 
z
" transform="scale(0.015625)"/>
      <path id="DejaVuSans-2d" d="M 313 2009 
L 1997 2009 
L 1997 1497 
L 313 1497 
L 313 2009 
z
" transform="scale(0.015625)"/>
      <path id="DejaVuSans-53" d="M 3425 4513 
L 3425 3897 
Q 3066 4069 2747 4153 
Q 2428 4238 2131 4238 
Q 1616 4238 1336 4038 
Q 1056 3838 1056 3469 
Q 1056 3159 1242 3001 
Q 1428 2844 1947 2747 
L 2328 2669 
Q 3034 2534 3370 2195 
Q 3706 1856 3706 1288 
Q 3706 609 3251 259 
Q 2797 -91 1919 -91 
Q 1588 -91 1214 -16 
Q 841 59 441 206 
L 441 856 
Q 825 641 1194 531 
Q 1563 422 1919 422 
Q 2459 422 2753 634 
Q 3047 847 3047 1241 
Q 3047 1584 2836 1778 
Q 2625 1972 2144 2069 
L 1759 2144 
Q 1053 2284 737 2584 
Q 422 2884 422 3419 
Q 422 4038 858 4394 
Q 1294 4750 2059 4750 
Q 2388 4750 2728 4690 
Q 3069 4631 3425 4513 
z
" transform="scale(0.015625)"/>
      <path id="DejaVuSans-4e" d="M 628 4666 
L 1478 4666 
L 3547 763 
L 3547 4666 
L 4159 4666 
L 4159 0 
L 3309 0 
L 1241 3903 
L 1241 0 
L 628 0 
L 628 4666 
z
" transform="scale(0.015625)"/>
      <path id="DejaVuSans-45" d="M 628 4666 
L 3578 4666 
L 3578 4134 
L 1259 4134 
L 1259 2753 
L 3481 2753 
L 3481 2222 
L 1259 2222 
L 1259 531 
L 3634 531 
L 3634 0 
L 628 0 
L 628 4666 
z
" transform="scale(0.015625)"/>
      <path id="DejaVuSans-20" transform="scale(0.015625)"/>
      <path id="DejaVuSans-28" d="M 1984 4856 
Q 1566 4138 1362 3434 
Q 1159 2731 1159 2009 
Q 1159 1288 1364 580 
Q 1569 -128 1984 -844 
L 1484 -844 
Q 1016 -109 783 600 
Q 550 1309 550 2009 
Q 550 2706 781 3412 
Q 1013 4119 1484 4856 
L 1984 4856 
z
" transform="scale(0.015625)"/>
      <path id="DejaVuSans-41" d="M 2188 4044 
L 1331 1722 
L 3047 1722 
L 2188 4044 
z
M 1831 4666 
L 2547 4666 
L 4325 0 
L 3669 0 
L 3244 1197 
L 1141 1197 
L 716 0 
L 50 0 
L 1831 4666 
z
" transform="scale(0.015625)"/>
      <path id="DejaVuSans-29" d="M 513 4856 
L 1013 4856 
Q 1481 4119 1714 3412 
Q 1947 2706 1947 2009 
Q 1947 1309 1714 600 
Q 1481 -109 1013 -844 
L 513 -844 
Q 928 -128 1133 580 
Q 1338 1288 1338 2009 
Q 1338 2731 1133 3434 
Q 928 4138 513 4856 
z
" transform="scale(0.015625)"/>
      <path id="DejaVuSans-4c" d="M 628 4666 
L 1259 4666 
L 1259 531 
L 3531 531 
L 3531 0 
L 628 0 
L 628 4666 
z
" transform="scale(0.015625)"/>
      <path id="DejaVuSans-61" d="M 2194 1759 
Q 1497 1759 1228 1600 
Q 959 1441 959 1056 
Q 959 750 1161 570 
Q 1363 391 1709 391 
Q 2188 391 2477 730 
Q 2766 1069 2766 1631 
L 2766 1759 
L 2194 1759 
z
M 3341 1997 
L 3341 0 
L 2766 0 
L 2766 531 
Q 2569 213 2275 61 
Q 1981 -91 1556 -91 
Q 1019 -91 701 211 
Q 384 513 384 1019 
Q 384 1609 779 1909 
Q 1175 2209 1959 2209 
L 2766 2209 
L 2766 2266 
Q 2766 2663 2505 2880 
Q 2244 3097 1772 3097 
Q 1472 3097 1187 3025 
Q 903 2953 641 2809 
L 641 3341 
Q 956 3463 1253 3523 
Q 1550 3584 1831 3584 
Q 2591 3584 2966 3190 
Q 3341 2797 3341 1997 
z
" transform="scale(0.015625)"/>
      <path id="DejaVuSans-6e" d="M 3513 2113 
L 3513 0 
L 2938 0 
L 2938 2094 
Q 2938 2591 2744 2837 
Q 2550 3084 2163 3084 
Q 1697 3084 1428 2787 
Q 1159 2491 1159 1978 
L 1159 0 
L 581 0 
L 581 3500 
L 1159 3500 
L 1159 2956 
Q 1366 3272 1645 3428 
Q 1925 3584 2291 3584 
Q 2894 3584 3203 3211 
Q 3513 2838 3513 2113 
z
" transform="scale(0.015625)"/>
      <path id="DejaVuSans-67" d="M 2906 1791 
Q 2906 2416 2648 2759 
Q 2391 3103 1925 3103 
Q 1463 3103 1205 2759 
Q 947 2416 947 1791 
Q 947 1169 1205 825 
Q 1463 481 1925 481 
Q 2391 481 2648 825 
Q 2906 1169 2906 1791 
z
M 3481 434 
Q 3481 -459 3084 -895 
Q 2688 -1331 1869 -1331 
Q 1566 -1331 1297 -1286 
Q 1028 -1241 775 -1147 
L 775 -588 
Q 1028 -725 1275 -790 
Q 1522 -856 1778 -856 
Q 2344 -856 2625 -561 
Q 2906 -266 2906 331 
L 2906 616 
Q 2728 306 2450 153 
Q 2172 0 1784 0 
Q 1141 0 747 490 
Q 353 981 353 1791 
Q 353 2603 747 3093 
Q 1141 3584 1784 3584 
Q 2172 3584 2450 3431 
Q 2728 3278 2906 2969 
L 2906 3500 
L 3481 3500 
L 3481 434 
z
" transform="scale(0.015625)"/>
      <path id="DejaVuSans-75" d="M 544 1381 
L 544 3500 
L 1119 3500 
L 1119 1403 
Q 1119 906 1312 657 
Q 1506 409 1894 409 
Q 2359 409 2629 706 
Q 2900 1003 2900 1516 
L 2900 3500 
L 3475 3500 
L 3475 0 
L 2900 0 
L 2900 538 
Q 2691 219 2414 64 
Q 2138 -91 1772 -91 
Q 1169 -91 856 284 
Q 544 659 544 1381 
z
M 1991 3584 
L 1991 3584 
z
" transform="scale(0.015625)"/>
      <path id="DejaVuSans-65" d="M 3597 1894 
L 3597 1613 
L 953 1613 
Q 991 1019 1311 708 
Q 1631 397 2203 397 
Q 2534 397 2845 478 
Q 3156 559 3463 722 
L 3463 178 
Q 3153 47 2828 -22 
Q 2503 -91 2169 -91 
Q 1331 -91 842 396 
Q 353 884 353 1716 
Q 353 2575 817 3079 
Q 1281 3584 2069 3584 
Q 2775 3584 3186 3129 
Q 3597 2675 3597 1894 
z
M 3022 2063 
Q 3016 2534 2758 2815 
Q 2500 3097 2075 3097 
Q 1594 3097 1305 2825 
Q 1016 2553 972 2059 
L 3022 2063 
z
" transform="scale(0.015625)"/>
     </defs>
     <use xlink:href="#DejaVuSans-74"/>
     <use xlink:href="#DejaVuSans-2d" transform="translate(39.208984 0)"/>
     <use xlink:href="#DejaVuSans-53" transform="translate(75.292969 0)"/>
     <use xlink:href="#DejaVuSans-4e" transform="translate(138.769531 0)"/>
     <use xlink:href="#DejaVuSans-45" transform="translate(213.574219 0)"/>
     <use xlink:href="#DejaVuSans-20" transform="translate(276.757812 0)"/>
     <use xlink:href="#DejaVuSans-28" transform="translate(308.544922 0)"/>
     <use xlink:href="#DejaVuSans-41" transform="translate(347.558594 0)"/>
     <use xlink:href="#DejaVuSans-45" transform="translate(415.966797 0)"/>
     <use xlink:href="#DejaVuSans-29" transform="translate(479.150391 0)"/>
     <use xlink:href="#DejaVuSans-20" transform="translate(518.164062 0)"/>
     <use xlink:href="#DejaVuSans-2d" transform="translate(549.951172 0)"/>
     <use xlink:href="#DejaVuSans-20" transform="translate(586.035156 0)"/>
     <use xlink:href="#DejaVuSans-4c" transform="translate(617.822266 0)"/>
     <use xlink:href="#DejaVuSans-61" transform="translate(673.535156 0)"/>
     <use xlink:href="#DejaVuSans-6e" transform="translate(734.814453 0)"/>
     <use xlink:href="#DejaVuSans-67" transform="translate(798.193359 0)"/>
     <use xlink:href="#DejaVuSans-75" transform="translate(861.669922 0)"/>
     <use xlink:href="#DejaVuSans-61" transform="translate(925.048828 0)"/>
     <use xlink:href="#DejaVuSans-67" transform="translate(986.328125 0)"/>
     <use xlink:href="#DejaVuSans-65" transform="translate(1049.804688 0)"/>
    </g>
   </g>
   <g id="legend_1">
    <g id="patch_7">
     <path d="M 505.823125 74.3525 
L 550.324687 74.3525 
Q 552.324687 74.3525 552.324687 72.3525 
L 552.324687 29.318125 
Q 552.324687 27.318125 550.324687 27.318125 
L 505.823125 27.318125 
Q 503.823125 27.318125 503.823125 29.318125 
L 503.823125 72.3525 
Q 503.823125 74.3525 505.823125 74.3525 
z
" style="fill: #ffffff; opacity: 0.8; stroke: #cccccc; stroke-linejoin: miter"/>
    </g>
    <g id="text_16">
     <!-- Classes -->
     <g transform="translate(509.23875 38.916562) scale(0.1 -0.1)">
      <defs>
       <path id="DejaVuSans-43" d="M 4122 4306 
L 4122 3641 
Q 3803 3938 3442 4084 
Q 3081 4231 2675 4231 
Q 1875 4231 1450 3742 
Q 1025 3253 1025 2328 
Q 1025 1406 1450 917 
Q 1875 428 2675 428 
Q 3081 428 3442 575 
Q 3803 722 4122 1019 
L 4122 359 
Q 3791 134 3420 21 
Q 3050 -91 2638 -91 
Q 1578 -91 968 557 
Q 359 1206 359 2328 
Q 359 3453 968 4101 
Q 1578 4750 2638 4750 
Q 3056 4750 3426 4639 
Q 3797 4528 4122 4306 
z
" transform="scale(0.015625)"/>
       <path id="DejaVuSans-6c" d="M 603 4863 
L 1178 4863 
L 1178 0 
L 603 0 
L 603 4863 
z
" transform="scale(0.015625)"/>
       <path id="DejaVuSans-73" d="M 2834 3397 
L 2834 2853 
Q 2591 2978 2328 3040 
Q 2066 3103 1784 3103 
Q 1356 3103 1142 2972 
Q 928 2841 928 2578 
Q 928 2378 1081 2264 
Q 1234 2150 1697 2047 
L 1894 2003 
Q 2506 1872 2764 1633 
Q 3022 1394 3022 966 
Q 3022 478 2636 193 
Q 2250 -91 1575 -91 
Q 1294 -91 989 -36 
Q 684 19 347 128 
L 347 722 
Q 666 556 975 473 
Q 1284 391 1588 391 
Q 1994 391 2212 530 
Q 2431 669 2431 922 
Q 2431 1156 2273 1281 
Q 2116 1406 1581 1522 
L 1381 1569 
Q 847 1681 609 1914 
Q 372 2147 372 2553 
Q 372 3047 722 3315 
Q 1072 3584 1716 3584 
Q 2034 3584 2315 3537 
Q 2597 3491 2834 3397 
z
" transform="scale(0.015625)"/>
      </defs>
      <use xlink:href="#DejaVuSans-43"/>
      <use xlink:href="#DejaVuSans-6c" transform="translate(69.824219 0)"/>
      <use xlink:href="#DejaVuSans-61" transform="translate(97.607422 0)"/>
      <use xlink:href="#DejaVuSans-73" transform="translate(158.886719 0)"/>
      <use xlink:href="#DejaVuSans-73" transform="translate(210.986328 0)"/>
      <use xlink:href="#DejaVuSans-65" transform="translate(263.085938 0)"/>
      <use xlink:href="#DejaVuSans-73" transform="translate(324.609375 0)"/>
     </g>
    </g>
    <g id="line2d_15">
     <defs>
      <path id="mfc162dbac1" d="M 0 3 
C 0.795609 3 1.55874 2.683901 2.12132 2.12132 
C 2.683901 1.55874 3 0.795609 3 0 
C 3 -0.795609 2.683901 -1.55874 2.12132 -2.12132 
C 1.55874 -2.683901 0.795609 -3 0 -3 
C -0.795609 -3 -1.55874 -2.683901 -2.12132 -2.12132 
C -2.683901 -1.55874 -3 -0.795609 -3 0 
C -3 0.795609 -2.683901 1.55874 -2.12132 2.12132 
C -1.55874 2.683901 -0.795609 3 0 3 
z
" style="stroke: #3b4cc0"/>
     </defs>
     <g>
      <use xlink:href="#mfc162dbac1" x="517.823125" y="50.094687" style="fill: #3b4cc0; stroke: #3b4cc0"/>
     </g>
    </g>
    <g id="text_17">
     <!-- de -->
     <g transform="translate(535.823125 53.594687) scale(0.1 -0.1)">
      <defs>
       <path id="DejaVuSans-64" d="M 2906 2969 
L 2906 4863 
L 3481 4863 
L 3481 0 
L 2906 0 
L 2906 525 
Q 2725 213 2448 61 
Q 2172 -91 1784 -91 
Q 1150 -91 751 415 
Q 353 922 353 1747 
Q 353 2572 751 3078 
Q 1150 3584 1784 3584 
Q 2172 3584 2448 3432 
Q 2725 3281 2906 2969 
z
M 947 1747 
Q 947 1113 1208 752 
Q 1469 391 1925 391 
Q 2381 391 2643 752 
Q 2906 1113 2906 1747 
Q 2906 2381 2643 2742 
Q 2381 3103 1925 3103 
Q 1469 3103 1208 2742 
Q 947 2381 947 1747 
z
" transform="scale(0.015625)"/>
      </defs>
      <use xlink:href="#DejaVuSans-64"/>
      <use xlink:href="#DejaVuSans-65" transform="translate(63.476562 0)"/>
     </g>
    </g>
    <g id="line2d_16">
     <defs>
      <path id="m22764e8002" d="M 0 3 
C 0.795609 3 1.55874 2.683901 2.12132 2.12132 
C 2.683901 1.55874 3 0.795609 3 0 
C 3 -0.795609 2.683901 -1.55874 2.12132 -2.12132 
C 1.55874 -2.683901 0.795609 -3 0 -3 
C -0.795609 -3 -1.55874 -2.683901 -2.12132 -2.12132 
C -2.683901 -1.55874 -3 -0.795609 -3 0 
C -3 0.795609 -2.683901 1.55874 -2.12132 2.12132 
C -1.55874 2.683901 -0.795609 3 0 3 
z
" style="stroke: #b40426"/>
     </defs>
     <g>
      <use xlink:href="#m22764e8002" x="517.823125" y="64.772812" style="fill: #b40426; stroke: #b40426"/>
     </g>
    </g>
    <g id="text_18">
     <!-- en -->
     <g transform="translate(535.823125 68.272812) scale(0.1 -0.1)">
      <use xlink:href="#DejaVuSans-65"/>
      <use xlink:href="#DejaVuSans-6e" transform="translate(61.523438 0)"/>
     </g>
    </g>
   </g>
  </g>
 </g>
 <defs>
  <clipPath id="pf4064a3eda">
   <rect x="30.103125" y="22.318125" width="446.4" height="332.64"/>
  </clipPath>
 </defs>
</svg>
