<?xml version="1.0" encoding="utf-8" standalone="no"?>
<!DOCTYPE svg PUBLIC "-//W3C//DTD SVG 1.1//EN"
  "http://www.w3.org/Graphics/SVG/1.1/DTD/svg11.dtd">
<svg xmlns:xlink="http://www.w3.org/1999/xlink" width="549.984062pt" height="378.83625pt" viewBox="0 0 549.984062 378.83625" xmlns="http://www.w3.org/2000/svg" version="1.1">
 <metadata>
  <rdf:RDF xmlns:dc="http://purl.org/dc/elements/1.1/" xmlns:cc="http://creativecommons.org/ns#" xmlns:rdf="http://www.w3.org/1999/02/22-rdf-syntax-ns#">
   <cc:Work>
    <dc:type rdf:resource="http://purl.org/dc/dcmitype/StillImage"/>
    <dc:date>2026-04-22T09:46:19.771506</dc:date>
    <dc:format>image/svg+xml</dc:format>
    <dc:creator>
     <cc:Agent>
      <dc:title>Matplotlib v3.10.8, https://matplotlib.org/</dc:title>
     </cc:Agent>
    </dc:creator>
   </cc:Work>
  </rdf:RDF>
 </metadata>
 <defs>
  <style type="text/css">*{stroke-linejoin: round; stroke-linecap: butt}</style>
 </defs>
 <g id="figure_1">
  <g id="patch_1">
   <path d="M 0 378.83625 
L 549.984062 378.83625 
L 549.984062 0 
L 0 0 
z
" style="fill: #ffffff"/>
  </g>
  <g id="axes_1">
   <g id="patch_2">
    <path d="M 20.5625 354.958125 
L 466.9625 354.958125 
L 466.9625 22.318125 
L 20.5625 22.318125 
z
" style="fill: #ffffff"/>
   </g>
   <g id="PathCollection_1">
    <defs>
     <path id="C0_0_fecd8d29b9" d="M 0 1.581139 
C 0.419323 1.581139 0.821528 1.41454 1.118034 1.118034 
C 1.41454 0.821528 1.581139 0.419323 1.581139 -0 
C 1.581139 -0.419323 1.41454 -0.821528 1.118034 -1.118034 
C 0.821528 -1.41454 0.419323 -1.581139 0 -1.581139 
C -0.419323 -1.581139 -0.821528 -1.41454 -1.118034 -1.118034 
C -1.41454 -0.821528 -1.581139 -0.419323 -1.581139 0 
C -1.581139 0.419323 -1.41454 0.821528 -1.118034 1.118034 
C -0.821528 1.41454 -0.419323 1.581139 0 1.581139 
z
"/>
    </defs>
    <g clip-path="url(#pf8cbdc1996)">
     <use xlink:href="#C0_0_fecd8d29b9" x="236.000715" y="339.838125" style="fill: #b40426; stroke: #b40426"/>
    </g>
    <g clip-path="url(#pf8cbdc1996)">
     <use xlink:href="#C0_0_fecd8d29b9" x="361.659551" y="195.44905" style="fill: #b40426; stroke: #b40426"/>
    </g>
    <g clip-path="url(#pf8cbdc1996)">
     <use xlink:href="#C0_0_fecd8d29b9" x="292.867979" y="250.559348" style="fill: #b40426; stroke: #b40426"/>
    </g>
    <g clip-path="url(#pf8cbdc1996)">
     <use xlink:href="#C0_0_fecd8d29b9" x="344.308829" y="299.177312" style="fill: #b40426; stroke: #b40426"/>
    </g>
    <g clip-path="url(#pf8cbdc1996)">
     <use xlink:href="#C0_0_fecd8d29b9" x="304.831103" y="236.837032" style="fill: #b40426; stroke: #b40426"/>
    </g>
    <g clip-path="url(#pf8cbdc1996)">
     <use xlink:href="#C0_0_fecd8d29b9" x="295.650097" y="207.605647" style="fill: #b40426; stroke: #b40426"/>
    </g>
    <g clip-path="url(#pf8cbdc1996)">
     <use xlink:href="#C0_0_fecd8d29b9" x="128.261925" y="254.377766" style="fill: #b40426; stroke: #b40426"/>
    </g>
    <g clip-path="url(#pf8cbdc1996)">
     <use xlink:href="#C0_0_fecd8d29b9" x="308.741431" y="204.116672" style="fill: #b40426; stroke: #b40426"/>
    </g>
    <g clip-path="url(#pf8cbdc1996)">
     <use xlink:href="#C0_0_fecd8d29b9" x="403.831065" y="160.84382" style="fill: #b40426; stroke: #b40426"/>
    </g>
    <g clip-path="url(#pf8cbdc1996)">
     <use xlink:href="#C0_0_fecd8d29b9" x="254.972322" y="236.968789" style="fill: #b40426; stroke: #b40426"/>
    </g>
    <g clip-path="url(#pf8cbdc1996)">
     <use xlink:href="#C0_0_fecd8d29b9" x="297.202295" y="268.504628" style="fill: #b40426; stroke: #b40426"/>
    </g>
    <g clip-path="url(#pf8cbdc1996)">
     <use xlink:href="#C0_0_fecd8d29b9" x="330.849755" y="210.748813" style="fill: #b40426; stroke: #b40426"/>
    </g>
    <g clip-path="url(#pf8cbdc1996)">
     <use xlink:href="#C0_0_fecd8d29b9" x="225.066074" y="225.469053" style="fill: #b40426; stroke: #b40426"/>
    </g>
    <g clip-path="url(#pf8cbdc1996)">
     <use xlink:href="#C0_0_fecd8d29b9" x="267.459415" y="112.155726" style="fill: #b40426; stroke: #b40426"/>
    </g>
    <g clip-path="url(#pf8cbdc1996)">
     <use xlink:href="#C0_0_fecd8d29b9" x="423.213539" y="221.904328" style="fill: #b40426; stroke: #b40426"/>
    </g>
    <g clip-path="url(#pf8cbdc1996)">
     <use xlink:href="#C0_0_fecd8d29b9" x="358.199205" y="195.217588" style="fill: #b40426; stroke: #b40426"/>
    </g>
    <g clip-path="url(#pf8cbdc1996)">
     <use xlink:href="#C0_0_fecd8d29b9" x="216.655053" y="82.367526" style="fill: #b40426; stroke: #b40426"/>
    </g>
    <g clip-path="url(#pf8cbdc1996)">
     <use xlink:href="#C0_0_fecd8d29b9" x="133.611814" y="253.045015" style="fill: #b40426; stroke: #b40426"/>
    </g>
    <g clip-path="url(#pf8cbdc1996)">
     <use xlink:href="#C0_0_fecd8d29b9" x="246.073214" y="235.788737" style="fill: #b40426; stroke: #b40426"/>
    </g>
    <g clip-path="url(#pf8cbdc1996)">
     <use xlink:href="#C0_0_fecd8d29b9" x="248.525986" y="37.438125" style="fill: #b40426; stroke: #b40426"/>
    </g>
    <g clip-path="url(#pf8cbdc1996)">
     <use xlink:href="#C0_0_fecd8d29b9" x="405.577512" y="280.137984" style="fill: #b40426; stroke: #b40426"/>
    </g>
    <g clip-path="url(#pf8cbdc1996)">
     <use xlink:href="#C0_0_fecd8d29b9" x="297.088188" y="253.019894" style="fill: #b40426; stroke: #b40426"/>
    </g>
    <g clip-path="url(#pf8cbdc1996)">
     <use xlink:href="#C0_0_fecd8d29b9" x="296.567703" y="274.247499" style="fill: #b40426; stroke: #b40426"/>
    </g>
    <g clip-path="url(#pf8cbdc1996)">
     <use xlink:href="#C0_0_fecd8d29b9" x="324.04411" y="207.691828" style="fill: #b40426; stroke: #b40426"/>
    </g>
    <g clip-path="url(#pf8cbdc1996)">
     <use xlink:href="#C0_0_fecd8d29b9" x="250.094318" y="155.482171" style="fill: #b40426; stroke: #b40426"/>
    </g>
    <g clip-path="url(#pf8cbdc1996)">
     <use xlink:href="#C0_0_fecd8d29b9" x="270.63882" y="256.608469" style="fill: #b40426; stroke: #b40426"/>
    </g>
    <g clip-path="url(#pf8cbdc1996)">
     <use xlink:href="#C0_0_fecd8d29b9" x="324.460927" y="205.585602" style="fill: #3b4cc0; stroke: #3b4cc0"/>
    </g>
    <g clip-path="url(#pf8cbdc1996)">
     <use xlink:href="#C0_0_fecd8d29b9" x="198.368891" y="160.205246" style="fill: #3b4cc0; stroke: #3b4cc0"/>
    </g>
    <g clip-path="url(#pf8cbdc1996)">
     <use xlink:href="#C0_0_fecd8d29b9" x="415.641001" y="156.583379" style="fill: #3b4cc0; stroke: #3b4cc0"/>
    </g>
    <g clip-path="url(#pf8cbdc1996)">
     <use xlink:href="#C0_0_fecd8d29b9" x="284.789103" y="209.020838" style="fill: #3b4cc0; stroke: #3b4cc0"/>
    </g>
    <g clip-path="url(#pf8cbdc1996)">
     <use xlink:href="#C0_0_fecd8d29b9" x="95.995243" y="166.018093" style="fill: #3b4cc0; stroke: #3b4cc0"/>
    </g>
    <g clip-path="url(#pf8cbdc1996)">
     <use xlink:href="#C0_0_fecd8d29b9" x="216.439511" y="294.875425" style="fill: #3b4cc0; stroke: #3b4cc0"/>
    </g>
    <g clip-path="url(#pf8cbdc1996)">
     <use xlink:href="#C0_0_fecd8d29b9" x="381.567476" y="272.064697" style="fill: #3b4cc0; stroke: #3b4cc0"/>
    </g>
    <g clip-path="url(#pf8cbdc1996)">
     <use xlink:href="#C0_0_fecd8d29b9" x="58.049071" y="270.33098" style="fill: #3b4cc0; stroke: #3b4cc0"/>
    </g>
    <g clip-path="url(#pf8cbdc1996)">
     <use xlink:href="#C0_0_fecd8d29b9" x="275.753076" y="108.711809" style="fill: #3b4cc0; stroke: #3b4cc0"/>
    </g>
    <g clip-path="url(#pf8cbdc1996)">
     <use xlink:href="#C0_0_fecd8d29b9" x="209.189144" y="152.436021" style="fill: #3b4cc0; stroke: #3b4cc0"/>
    </g>
    <g clip-path="url(#pf8cbdc1996)">
     <use xlink:href="#C0_0_fecd8d29b9" x="437.121427" y="155.016169" style="fill: #3b4cc0; stroke: #3b4cc0"/>
    </g>
    <g clip-path="url(#pf8cbdc1996)">
     <use xlink:href="#C0_0_fecd8d29b9" x="275.069407" y="93.49515" style="fill: #3b4cc0; stroke: #3b4cc0"/>
    </g>
    <g clip-path="url(#pf8cbdc1996)">
     <use xlink:href="#C0_0_fecd8d29b9" x="384.746227" y="57.444021" style="fill: #3b4cc0; stroke: #3b4cc0"/>
    </g>
    <g clip-path="url(#pf8cbdc1996)">
     <use xlink:href="#C0_0_fecd8d29b9" x="317.664098" y="175.411458" style="fill: #3b4cc0; stroke: #3b4cc0"/>
    </g>
    <g clip-path="url(#pf8cbdc1996)">
     <use xlink:href="#C0_0_fecd8d29b9" x="165.083186" y="90.800299" style="fill: #3b4cc0; stroke: #3b4cc0"/>
    </g>
    <g clip-path="url(#pf8cbdc1996)">
     <use xlink:href="#C0_0_fecd8d29b9" x="446.671591" y="197.697739" style="fill: #3b4cc0; stroke: #3b4cc0"/>
    </g>
    <g clip-path="url(#pf8cbdc1996)">
     <use xlink:href="#C0_0_fecd8d29b9" x="264.388832" y="74.492911" style="fill: #3b4cc0; stroke: #3b4cc0"/>
    </g>
    <g clip-path="url(#pf8cbdc1996)">
     <use xlink:href="#C0_0_fecd8d29b9" x="333.519237" y="198.393665" style="fill: #3b4cc0; stroke: #3b4cc0"/>
    </g>
    <g clip-path="url(#pf8cbdc1996)">
     <use xlink:href="#C0_0_fecd8d29b9" x="46.232202" y="272.527006" style="fill: #3b4cc0; stroke: #3b4cc0"/>
    </g>
    <g clip-path="url(#pf8cbdc1996)">
     <use xlink:href="#C0_0_fecd8d29b9" x="262.75931" y="85.421515" style="fill: #3b4cc0; stroke: #3b4cc0"/>
    </g>
    <g clip-path="url(#pf8cbdc1996)">
     <use xlink:href="#C0_0_fecd8d29b9" x="40.853409" y="276.834611" style="fill: #3b4cc0; stroke: #3b4cc0"/>
    </g>
    <g clip-path="url(#pf8cbdc1996)">
     <use xlink:href="#C0_0_fecd8d29b9" x="357.90425" y="147.233161" style="fill: #3b4cc0; stroke: #3b4cc0"/>
    </g>
    <g clip-path="url(#pf8cbdc1996)">
     <use xlink:href="#C0_0_fecd8d29b9" x="336.541977" y="61.285834" style="fill: #3b4cc0; stroke: #3b4cc0"/>
    </g>
    <g clip-path="url(#pf8cbdc1996)">
     <use xlink:href="#C0_0_fecd8d29b9" x="115.824378" y="262.8036" style="fill: #3b4cc0; stroke: #3b4cc0"/>
    </g>
   </g>
   <g id="matplotlib.axis_1">
    <g id="xtick_1">
     <g id="line2d_1">
      <defs>
       <path id="m2debcc332d" d="M 0 0 
L 0 3.5 
" style="stroke: #000000; stroke-width: 0.8"/>
      </defs>
      <g>
       <use xlink:href="#m2debcc332d" x="89.946881" y="354.958125" style="stroke: #000000; stroke-width: 0.8"/>
      </g>
     </g>
     <g id="text_1">
      <!-- −1 -->
      <g transform="translate(82.575788 369.556562) scale(0.1 -0.1)">
       <defs>
        <path id="DejaVuSans-2212" d="M 678 2272 
L 4684 2272 
L 4684 1741 
L 678 1741 
L 678 2272 
z
" transform="scale(0.015625)"/>
        <path id="DejaVuSans-31" d="M 794 531 
L 1825 531 
L 1825 4091 
L 703 3866 
L 703 4441 
L 1819 4666 
L 2450 4666 
L 2450 531 
L 3481 531 
L 3481 0 
L 794 0 
L 794 531 
z
" transform="scale(0.015625)"/>
       </defs>
       <use xlink:href="#DejaVuSans-2212"/>
       <use xlink:href="#DejaVuSans-31" transform="translate(83.789062 0)"/>
      </g>
     </g>
    </g>
    <g id="xtick_2">
     <g id="line2d_2">
      <g>
       <use xlink:href="#m2debcc332d" x="180.685292" y="354.958125" style="stroke: #000000; stroke-width: 0.8"/>
      </g>
     </g>
     <g id="text_2">
      <!-- 0 -->
      <g transform="translate(177.504042 369.556562) scale(0.1 -0.1)">
       <defs>
        <path id="DejaVuSans-30" d="M 2034 4250 
Q 1547 4250 1301 3770 
Q 1056 3291 1056 2328 
Q 1056 1369 1301 889 
Q 1547 409 2034 409 
Q 2525 409 2770 889 
Q 3016 1369 3016 2328 
Q 3016 3291 2770 3770 
Q 2525 4250 2034 4250 
z
M 2034 4750 
Q 2819 4750 3233 4129 
Q 3647 3509 3647 2328 
Q 3647 1150 3233 529 
Q 2819 -91 2034 -91 
Q 1250 -91 836 529 
Q 422 1150 422 2328 
Q 422 3509 836 4129 
Q 1250 4750 2034 4750 
z
" transform="scale(0.015625)"/>
       </defs>
       <use xlink:href="#DejaVuSans-30"/>
      </g>
     </g>
    </g>
    <g id="xtick_3">
     <g id="line2d_3">
      <g>
       <use xlink:href="#m2debcc332d" x="271.423703" y="354.958125" style="stroke: #000000; stroke-width: 0.8"/>
      </g>
     </g>
     <g id="text_3">
      <!-- 1 -->
      <g transform="translate(268.242453 369.556562) scale(0.1 -0.1)">
       <use xlink:href="#DejaVuSans-31"/>
      </g>
     </g>
    </g>
    <g id="xtick_4">
     <g id="line2d_4">
      <g>
       <use xlink:href="#m2debcc332d" x="362.162113" y="354.958125" style="stroke: #000000; stroke-width: 0.8"/>
      </g>
     </g>
     <g id="text_4">
      <!-- 2 -->
      <g transform="translate(358.980863 369.556562) scale(0.1 -0.1)">
       <defs>
        <path id="DejaVuSans-32" d="M 1228 531 
L 3431 531 
L 3431 0 
L 469 0 
L 469 531 
Q 828 903 1448 1529 
Q 2069 2156 2228 2338 
Q 2531 2678 2651 2914 
Q 2772 3150 2772 3378 
Q 2772 3750 2511 3984 
Q 2250 4219 1831 4219 
Q 1534 4219 1204 4116 
Q 875 4013 500 3803 
L 500 4441 
Q 881 4594 1212 4672 
Q 1544 4750 1819 4750 
Q 2544 4750 2975 4387 
Q 3406 4025 3406 3419 
Q 3406 3131 3298 2873 
Q 3191 2616 2906 2266 
Q 2828 2175 2409 1742 
Q 1991 1309 1228 531 
z
" transform="scale(0.015625)"/>
       </defs>
       <use xlink:href="#DejaVuSans-32"/>
      </g>
     </g>
    </g>
    <g id="xtick_5">
     <g id="line2d_5">
      <g>
       <use xlink:href="#m2debcc332d" x="452.900524" y="354.958125" style="stroke: #000000; stroke-width: 0.8"/>
      </g>
     </g>
     <g id="text_5">
      <!-- 3 -->
      <g transform="translate(449.719274 369.556562) scale(0.1 -0.1)">
       <defs>
        <path id="DejaVuSans-33" d="M 2597 2516 
Q 3050 2419 3304 2112 
Q 3559 1806 3559 1356 
Q 3559 666 3084 287 
Q 2609 -91 1734 -91 
Q 1441 -91 1130 -33 
Q 819 25 488 141 
L 488 750 
Q 750 597 1062 519 
Q 1375 441 1716 441 
Q 2309 441 2620 675 
Q 2931 909 2931 1356 
Q 2931 1769 2642 2001 
Q 2353 2234 1838 2234 
L 1294 2234 
L 1294 2753 
L 1863 2753 
Q 2328 2753 2575 2939 
Q 2822 3125 2822 3475 
Q 2822 3834 2567 4026 
Q 2313 4219 1838 4219 
Q 1578 4219 1281 4162 
Q 984 4106 628 3988 
L 628 4550 
Q 988 4650 1302 4700 
Q 1616 4750 1894 4750 
Q 2613 4750 3031 4423 
Q 3450 4097 3450 3541 
Q 3450 3153 3228 2886 
Q 3006 2619 2597 2516 
z
" transform="scale(0.015625)"/>
       </defs>
       <use xlink:href="#DejaVuSans-33"/>
      </g>
     </g>
    </g>
   </g>
   <g id="matplotlib.axis_2">
    <g id="ytick_1">
     <g id="line2d_6">
      <defs>
       <path id="m7a95449805" d="M 0 0 
L -3.5 0 
" style="stroke: #000000; stroke-width: 0.8"/>
      </defs>
      <g>
       <use xlink:href="#m7a95449805" x="20.5625" y="313.887851" style="stroke: #000000; stroke-width: 0.8"/>
      </g>
     </g>
     <g id="text_6">
      <!-- 1 -->
      <g transform="translate(7.2 317.687069) scale(0.1 -0.1)">
       <use xlink:href="#DejaVuSans-31"/>
      </g>
     </g>
    </g>
    <g id="ytick_2">
     <g id="line2d_7">
      <g>
       <use xlink:href="#m7a95449805" x="20.5625" y="245.955317" style="stroke: #000000; stroke-width: 0.8"/>
      </g>
     </g>
     <g id="text_7">
      <!-- 2 -->
      <g transform="translate(7.2 249.754536) scale(0.1 -0.1)">
       <use xlink:href="#DejaVuSans-32"/>
      </g>
     </g>
    </g>
    <g id="ytick_3">
     <g id="line2d_8">
      <g>
       <use xlink:href="#m7a95449805" x="20.5625" y="178.022784" style="stroke: #000000; stroke-width: 0.8"/>
      </g>
     </g>
     <g id="text_8">
      <!-- 3 -->
      <g transform="translate(7.2 181.822003) scale(0.1 -0.1)">
       <use xlink:href="#DejaVuSans-33"/>
      </g>
     </g>
    </g>
    <g id="ytick_4">
     <g id="line2d_9">
      <g>
       <use xlink:href="#m7a95449805" x="20.5625" y="110.090251" style="stroke: #000000; stroke-width: 0.8"/>
      </g>
     </g>
     <g id="text_9">
      <!-- 4 -->
      <g transform="translate(7.2 113.889469) scale(0.1 -0.1)">
       <defs>
        <path id="DejaVuSans-34" d="M 2419 4116 
L 825 1625 
L 2419 1625 
L 2419 4116 
z
M 2253 4666 
L 3047 4666 
L 3047 1625 
L 3713 1625 
L 3713 1100 
L 3047 1100 
L 3047 0 
L 2419 0 
L 2419 1100 
L 313 1100 
L 313 1709 
L 2253 4666 
z
" transform="scale(0.015625)"/>
       </defs>
       <use xlink:href="#DejaVuSans-34"/>
      </g>
     </g>
    </g>
    <g id="ytick_5">
     <g id="line2d_10">
      <g>
       <use xlink:href="#m7a95449805" x="20.5625" y="42.157717" style="stroke: #000000; stroke-width: 0.8"/>
      </g>
     </g>
     <g id="text_10">
      <!-- 5 -->
      <g transform="translate(7.2 45.956936) scale(0.1 -0.1)">
       <defs>
        <path id="DejaVuSans-35" d="M 691 4666 
L 3169 4666 
L 3169 4134 
L 1269 4134 
L 1269 2991 
Q 1406 3038 1543 3061 
Q 1681 3084 1819 3084 
Q 2600 3084 3056 2656 
Q 3513 2228 3513 1497 
Q 3513 744 3044 326 
Q 2575 -91 1722 -91 
Q 1428 -91 1123 -41 
Q 819 9 494 109 
L 494 744 
Q 775 591 1075 516 
Q 1375 441 1709 441 
Q 2250 441 2565 725 
Q 2881 1009 2881 1497 
Q 2881 1984 2565 2268 
Q 2250 2553 1709 2553 
Q 1456 2553 1204 2497 
Q 953 2441 691 2322 
L 691 4666 
z
" transform="scale(0.015625)"/>
       </defs>
       <use xlink:href="#DejaVuSans-35"/>
      </g>
     </g>
    </g>
   </g>
   <g id="patch_3">
    <path d="M 20.5625 354.958125 
L 20.5625 22.318125 
" style="fill: none; stroke: #000000; stroke-width: 0.8; stroke-linejoin: miter; stroke-linecap: square"/>
   </g>
   <g id="patch_4">
    <path d="M 466.9625 354.958125 
L 466.9625 22.318125 
" style="fill: none; stroke: #000000; stroke-width: 0.8; stroke-linejoin: miter; stroke-linecap: square"/>
   </g>
   <g id="patch_5">
    <path d="M 20.5625 354.958125 
L 466.9625 354.958125 
" style="fill: none; stroke: #000000; stroke-width: 0.8; stroke-linejoin: miter; stroke-linecap: square"/>
   </g>
   <g id="patch_6">
    <path d="M 20.5625 22.318125 
L 466.9625 22.318125 
" style="fill: none; stroke: #000000; stroke-width: 0.8; stroke-linejoin: miter; stroke-linecap: square"/>
   </g>
   <g id="text_11">
    <!-- t-SNE (Beta-VAE (Beta=2)) - Language -->
    <g transform="translate(128.43875 16.318125) scale(0.12 -0.12)">
     <defs>
      <path id="DejaVuSans-74" d="M 1172 4494 
L 1172 3500 
L 2356 3500 
L 2356 3053 
L 1172 3053 
L 1172 1153 
Q 1172 725 1289 603 
Q 1406 481 1766 481 
L 2356 481 
L 2356 0 
L 1766 0 
Q 1100 0 847 248 
Q 594 497 594 1153 
L 594 3053 
L 172 3053 
L 172 3500 
L 594 3500 
L 594 4494 
L 1172 4494 
z
" transform="scale(0.015625)"/>
      <path id="DejaVuSans-2d" d="M 313 2009 
L 1997 2009 
L 1997 1497 
L 313 1497 
L 313 2009 
z
" transform="scale(0.015625)"/>
      <path id="DejaVuSans-53" d="M 3425 4513 
L 3425 3897 
Q 3066 4069 2747 4153 
Q 2428 4238 2131 4238 
Q 1616 4238 1336 4038 
Q 1056 3838 1056 3469 
Q 1056 3159 1242 3001 
Q 1428 2844 1947 2747 
L 2328 2669 
Q 3034 2534 3370 2195 
Q 3706 1856 3706 1288 
Q 3706 609 3251 259 
Q 2797 -91 1919 -91 
Q 1588 -91 1214 -16 
Q 841 59 441 206 
L 441 856 
Q 825 641 1194 531 
Q 1563 422 1919 422 
Q 2459 422 2753 634 
Q 3047 847 3047 1241 
Q 3047 1584 2836 1778 
Q 2625 1972 2144 2069 
L 1759 2144 
Q 1053 2284 737 2584 
Q 422 2884 422 3419 
Q 422 4038 858 4394 
Q 1294 4750 2059 4750 
Q 2388 4750 2728 4690 
Q 3069 4631 3425 4513 
z
" transform="scale(0.015625)"/>
      <path id="DejaVuSans-4e" d="M 628 4666 
L 1478 4666 
L 3547 763 
L 3547 4666 
L 4159 4666 
L 4159 0 
L 3309 0 
L 1241 3903 
L 1241 0 
L 628 0 
L 628 4666 
z
" transform="scale(0.015625)"/>
      <path id="DejaVuSans-45" d="M 628 4666 
L 3578 4666 
L 3578 4134 
L 1259 4134 
L 1259 2753 
L 3481 2753 
L 3481 2222 
L 1259 2222 
L 1259 531 
L 3634 531 
L 3634 0 
L 628 0 
L 628 4666 
z
" transform="scale(0.015625)"/>
      <path id="DejaVuSans-20" transform="scale(0.015625)"/>
      <path id="DejaVuSans-28" d="M 1984 4856 
Q 1566 4138 1362 3434 
Q 1159 2731 1159 2009 
Q 1159 1288 1364 580 
Q 1569 -128 1984 -844 
L 1484 -844 
Q 1016 -109 783 600 
Q 550 1309 550 2009 
Q 550 2706 781 3412 
Q 1013 4119 1484 4856 
L 1984 4856 
z
" transform="scale(0.015625)"/>
      <path id="DejaVuSans-42" d="M 1259 2228 
L 1259 519 
L 2272 519 
Q 2781 519 3026 730 
Q 3272 941 3272 1375 
Q 3272 1813 3026 2020 
Q 2781 2228 2272 2228 
L 1259 2228 
z
M 1259 4147 
L 1259 2741 
L 2194 2741 
Q 2656 2741 2882 2914 
Q 3109 3088 3109 3444 
Q 3109 3797 2882 3972 
Q 2656 4147 2194 4147 
L 1259 4147 
z
M 628 4666 
L 2241 4666 
Q 2963 4666 3353 4366 
Q 3744 4066 3744 3513 
Q 3744 3084 3544 2831 
Q 3344 2578 2956 2516 
Q 3422 2416 3680 2098 
Q 3938 1781 3938 1306 
Q 3938 681 3513 340 
Q 3088 0 2303 0 
L 628 0 
L 628 4666 
z
" transform="scale(0.015625)"/>
      <path id="DejaVuSans-65" d="M 3597 1894 
L 3597 1613 
L 953 1613 
Q 991 1019 1311 708 
Q 1631 397 2203 397 
Q 2534 397 2845 478 
Q 3156 559 3463 722 
L 3463 178 
Q 3153 47 2828 -22 
Q 2503 -91 2169 -91 
Q 1331 -91 842 396 
Q 353 884 353 1716 
Q 353 2575 817 3079 
Q 1281 3584 2069 3584 
Q 2775 3584 3186 3129 
Q 3597 2675 3597 1894 
z
M 3022 2063 
Q 3016 2534 2758 2815 
Q 2500 3097 2075 3097 
Q 1594 3097 1305 2825 
Q 1016 2553 972 2059 
L 3022 2063 
z
" transform="scale(0.015625)"/>
      <path id="DejaVuSans-61" d="M 2194 1759 
Q 1497 1759 1228 1600 
Q 959 1441 959 1056 
Q 959 750 1161 570 
Q 1363 391 1709 391 
Q 2188 391 2477 730 
Q 2766 1069 2766 1631 
L 2766 1759 
L 2194 1759 
z
M 3341 1997 
L 3341 0 
L 2766 0 
L 2766 531 
Q 2569 213 2275 61 
Q 1981 -91 1556 -91 
Q 1019 -91 701 211 
Q 384 513 384 1019 
Q 384 1609 779 1909 
Q 1175 2209 1959 2209 
L 2766 2209 
L 2766 2266 
Q 2766 2663 2505 2880 
Q 2244 3097 1772 3097 
Q 1472 3097 1187 3025 
Q 903 2953 641 2809 
L 641 3341 
Q 956 3463 1253 3523 
Q 1550 3584 1831 3584 
Q 2591 3584 2966 3190 
Q 3341 2797 3341 1997 
z
" transform="scale(0.015625)"/>
      <path id="DejaVuSans-56" d="M 1831 0 
L 50 4666 
L 709 4666 
L 2188 738 
L 3669 4666 
L 4325 4666 
L 2547 0 
L 1831 0 
z
" transform="scale(0.015625)"/>
      <path id="DejaVuSans-41" d="M 2188 4044 
L 1331 1722 
L 3047 1722 
L 2188 4044 
z
M 1831 4666 
L 2547 4666 
L 4325 0 
L 3669 0 
L 3244 1197 
L 1141 1197 
L 716 0 
L 50 0 
L 1831 4666 
z
" transform="scale(0.015625)"/>
      <path id="DejaVuSans-3d" d="M 678 2906 
L 4684 2906 
L 4684 2381 
L 678 2381 
L 678 2906 
z
M 678 1631 
L 4684 1631 
L 4684 1100 
L 678 1100 
L 678 1631 
z
" transform="scale(0.015625)"/>
      <path id="DejaVuSans-29" d="M 513 4856 
L 1013 4856 
Q 1481 4119 1714 3412 
Q 1947 2706 1947 2009 
Q 1947 1309 1714 600 
Q 1481 -109 1013 -844 
L 513 -844 
Q 928 -128 1133 580 
Q 1338 1288 1338 2009 
Q 1338 2731 1133 3434 
Q 928 4138 513 4856 
z
" transform="scale(0.015625)"/>
      <path id="DejaVuSans-4c" d="M 628 4666 
L 1259 4666 
L 1259 531 
L 3531 531 
L 3531 0 
L 628 0 
L 628 4666 
z
" transform="scale(0.015625)"/>
      <path id="DejaVuSans-6e" d="M 3513 2113 
L 3513 0 
L 2938 0 
L 2938 2094 
Q 2938 2591 2744 2837 
Q 2550 3084 2163 3084 
Q 1697 3084 1428 2787 
Q 1159 2491 1159 1978 
L 1159 0 
L 581 0 
L 581 3500 
L 1159 3500 
L 1159 2956 
Q 1366 3272 1645 3428 
Q 1925 3584 2291 3584 
Q 2894 3584 3203 3211 
Q 3513 2838 3513 2113 
z
" transform="scale(0.015625)"/>
      <path id="DejaVuSans-67" d="M 2906 1791 
Q 2906 2416 2648 2759 
Q 2391 3103 1925 3103 
Q 1463 3103 1205 2759 
Q 947 2416 947 1791 
Q 947 1169 1205 825 
Q 1463 481 1925 481 
Q 2391 481 2648 825 
Q 2906 1169 2906 1791 
z
M 3481 434 
Q 3481 -459 3084 -895 
Q 2688 -1331 1869 -1331 
Q 1566 -1331 1297 -1286 
Q 1028 -1241 775 -1147 
L 775 -588 
Q 1028 -725 1275 -790 
Q 1522 -856 1778 -856 
Q 2344 -856 2625 -561 
Q 2906 -266 2906 331 
L 2906 616 
Q 2728 306 2450 153 
Q 2172 0 1784 0 
Q 1141 0 747 490 
Q 353 981 353 1791 
Q 353 2603 747 3093 
Q 1141 3584 1784 3584 
Q 2172 3584 2450 3431 
Q 2728 3278 2906 2969 
L 2906 3500 
L 3481 3500 
L 3481 434 
z
" transform="scale(0.015625)"/>
      <path id="DejaVuSans-75" d="M 544 1381 
L 544 3500 
L 1119 3500 
L 1119 1403 
Q 1119 906 1312 657 
Q 1506 409 1894 409 
Q 2359 409 2629 706 
Q 2900 1003 2900 1516 
L 2900 3500 
L 3475 3500 
L 3475 0 
L 2900 0 
L 2900 538 
Q 2691 219 2414 64 
Q 2138 -91 1772 -91 
Q 1169 -91 856 284 
Q 544 659 544 1381 
z
M 1991 3584 
L 1991 3584 
z
" transform="scale(0.015625)"/>
     </defs>
     <use xlink:href="#DejaVuSans-74"/>
     <use xlink:href="#DejaVuSans-2d" transform="translate(39.208984 0)"/>
     <use xlink:href="#DejaVuSans-53" transform="translate(75.292969 0)"/>
     <use xlink:href="#DejaVuSans-4e" transform="translate(138.769531 0)"/>
     <use xlink:href="#DejaVuSans-45" transform="translate(213.574219 0)"/>
     <use xlink:href="#DejaVuSans-20" transform="translate(276.757812 0)"/>
     <use xlink:href="#DejaVuSans-28" transform="translate(308.544922 0)"/>
     <use xlink:href="#DejaVuSans-42" transform="translate(347.558594 0)"/>
     <use xlink:href="#DejaVuSans-65" transform="translate(416.162109 0)"/>
     <use xlink:href="#DejaVuSans-74" transform="translate(477.685547 0)"/>
     <use xlink:href="#DejaVuSans-61" transform="translate(516.894531 0)"/>
     <use xlink:href="#DejaVuSans-2d" transform="translate(578.173828 0)"/>
     <use xlink:href="#DejaVuSans-56" transform="translate(608.382812 0)"/>
     <use xlink:href="#DejaVuSans-41" transform="translate(670.416016 0)"/>
     <use xlink:href="#DejaVuSans-45" transform="translate(738.824219 0)"/>
     <use xlink:href="#DejaVuSans-20" transform="translate(802.007812 0)"/>
     <use xlink:href="#DejaVuSans-28" transform="translate(833.794922 0)"/>
     <use xlink:href="#DejaVuSans-42" transform="translate(872.808594 0)"/>
     <use xlink:href="#DejaVuSans-65" transform="translate(941.412109 0)"/>
     <use xlink:href="#DejaVuSans-74" transform="translate(1002.935547 0)"/>
     <use xlink:href="#DejaVuSans-61" transform="translate(1042.144531 0)"/>
     <use xlink:href="#DejaVuSans-3d" transform="translate(1103.423828 0)"/>
     <use xlink:href="#DejaVuSans-32" transform="translate(1187.212891 0)"/>
     <use xlink:href="#DejaVuSans-29" transform="translate(1250.835938 0)"/>
     <use xlink:href="#DejaVuSans-29" transform="translate(1289.849609 0)"/>
     <use xlink:href="#DejaVuSans-20" transform="translate(1328.863281 0)"/>
     <use xlink:href="#DejaVuSans-2d" transform="translate(1360.650391 0)"/>
     <use xlink:href="#DejaVuSans-20" transform="translate(1396.734375 0)"/>
     <use xlink:href="#DejaVuSans-4c" transform="translate(1428.521484 0)"/>
     <use xlink:href="#DejaVuSans-61" transform="translate(1484.234375 0)"/>
     <use xlink:href="#DejaVuSans-6e" transform="translate(1545.513672 0)"/>
     <use xlink:href="#DejaVuSans-67" transform="translate(1608.892578 0)"/>
     <use xlink:href="#DejaVuSans-75" transform="translate(1672.369141 0)"/>
     <use xlink:href="#DejaVuSans-61" transform="translate(1735.748047 0)"/>
     <use xlink:href="#DejaVuSans-67" transform="translate(1797.027344 0)"/>
     <use xlink:href="#DejaVuSans-65" transform="translate(1860.503906 0)"/>
    </g>
   </g>
   <g id="legend_1">
    <g id="patch_7">
     <path d="M 496.2825 74.3525 
L 540.784063 74.3525 
Q 542.784063 74.3525 542.784063 72.3525 
L 542.784063 29.318125 
Q 542.784063 27.318125 540.784063 27.318125 
L 496.2825 27.318125 
Q 494.2825 27.318125 494.2825 29.318125 
L 494.2825 72.3525 
Q 494.2825 74.3525 496.2825 74.3525 
z
" style="fill: #ffffff; opacity: 0.8; stroke: #cccccc; stroke-linejoin: miter"/>
    </g>
    <g id="text_12">
     <!-- Classes -->
     <g transform="translate(499.698125 38.916562) scale(0.1 -0.1)">
      <defs>
       <path id="DejaVuSans-43" d="M 4122 4306 
L 4122 3641 
Q 3803 3938 3442 4084 
Q 3081 4231 2675 4231 
Q 1875 4231 1450 3742 
Q 1025 3253 1025 2328 
Q 1025 1406 1450 917 
Q 1875 428 2675 428 
Q 3081 428 3442 575 
Q 3803 722 4122 1019 
L 4122 359 
Q 3791 134 3420 21 
Q 3050 -91 2638 -91 
Q 1578 -91 968 557 
Q 359 1206 359 2328 
Q 359 3453 968 4101 
Q 1578 4750 2638 4750 
Q 3056 4750 3426 4639 
Q 3797 4528 4122 4306 
z
" transform="scale(0.015625)"/>
       <path id="DejaVuSans-6c" d="M 603 4863 
L 1178 4863 
L 1178 0 
L 603 0 
L 603 4863 
z
" transform="scale(0.015625)"/>
       <path id="DejaVuSans-73" d="M 2834 3397 
L 2834 2853 
Q 2591 2978 2328 3040 
Q 2066 3103 1784 3103 
Q 1356 3103 1142 2972 
Q 928 2841 928 2578 
Q 928 2378 1081 2264 
Q 1234 2150 1697 2047 
L 1894 2003 
Q 2506 1872 2764 1633 
Q 3022 1394 3022 966 
Q 3022 478 2636 193 
Q 2250 -91 1575 -91 
Q 1294 -91 989 -36 
Q 684 19 347 128 
L 347 722 
Q 666 556 975 473 
Q 1284 391 1588 391 
Q 1994 391 2212 530 
Q 2431 669 2431 922 
Q 2431 1156 2273 1281 
Q 2116 1406 1581 1522 
L 1381 1569 
Q 847 1681 609 1914 
Q 372 2147 372 2553 
Q 372 3047 722 3315 
Q 1072 3584 1716 3584 
Q 2034 3584 2315 3537 
Q 2597 3491 2834 3397 
z
" transform="scale(0.015625)"/>
      </defs>
      <use xlink:href="#DejaVuSans-43"/>
      <use xlink:href="#DejaVuSans-6c" transform="translate(69.824219 0)"/>
      <use xlink:href="#DejaVuSans-61" transform="translate(97.607422 0)"/>
      <use xlink:href="#DejaVuSans-73" transform="translate(158.886719 0)"/>
      <use xlink:href="#DejaVuSans-73" transform="translate(210.986328 0)"/>
      <use xlink:href="#DejaVuSans-65" transform="translate(263.085938 0)"/>
      <use xlink:href="#DejaVuSans-73" transform="translate(324.609375 0)"/>
     </g>
    </g>
    <g id="line2d_11">
     <defs>
      <path id="md37c9128ca" d="M 0 3 
C 0.795609 3 1.55874 2.683901 2.12132 2.12132 
C 2.683901 1.55874 3 0.795609 3 0 
C 3 -0.795609 2.683901 -1.55874 2.12132 -2.12132 
C 1.55874 -2.683901 0.795609 -3 0 -3 
C -0.795609 -3 -1.55874 -2.683901 -2.12132 -2.12132 
C -2.683901 -1.55874 -3 -0.795609 -3 0 
C -3 0.795609 -2.683901 1.55874 -2.12132 2.12132 
C -1.55874 2.683901 -0.795609 3 0 3 
z
" style="stroke: #3b4cc0"/>
     </defs>
     <g>
      <use xlink:href="#md37c9128ca" x="508.2825" y="50.094687" style="fill: #3b4cc0; stroke: #3b4cc0"/>
     </g>
    </g>
    <g id="text_13">
     <!-- de -->
     <g transform="translate(526.2825 53.594687) scale(0.1 -0.1)">
      <defs>
       <path id="DejaVuSans-64" d="M 2906 2969 
L 2906 4863 
L 3481 4863 
L 3481 0 
L 2906 0 
L 2906 525 
Q 2725 213 2448 61 
Q 2172 -91 1784 -91 
Q 1150 -91 751 415 
Q 353 922 353 1747 
Q 353 2572 751 3078 
Q 1150 3584 1784 3584 
Q 2172 3584 2448 3432 
Q 2725 3281 2906 2969 
z
M 947 1747 
Q 947 1113 1208 752 
Q 1469 391 1925 391 
Q 2381 391 2643 752 
Q 2906 1113 2906 1747 
Q 2906 2381 2643 2742 
Q 2381 3103 1925 3103 
Q 1469 3103 1208 2742 
Q 947 2381 947 1747 
z
" transform="scale(0.015625)"/>
      </defs>
      <use xlink:href="#DejaVuSans-64"/>
      <use xlink:href="#DejaVuSans-65" transform="translate(63.476562 0)"/>
     </g>
    </g>
    <g id="line2d_12">
     <defs>
      <path id="m90b4150eb8" d="M 0 3 
C 0.795609 3 1.55874 2.683901 2.12132 2.12132 
C 2.683901 1.55874 3 0.795609 3 0 
C 3 -0.795609 2.683901 -1.55874 2.12132 -2.12132 
C 1.55874 -2.683901 0.795609 -3 0 -3 
C -0.795609 -3 -1.55874 -2.683901 -2.12132 -2.12132 
C -2.683901 -1.55874 -3 -0.795609 -3 0 
C -3 0.795609 -2.683901 1.55874 -2.12132 2.12132 
C -1.55874 2.683901 -0.795609 3 0 3 
z
" style="stroke: #b40426"/>
     </defs>
     <g>
      <use xlink:href="#m90b4150eb8" x="508.2825" y="64.772812" style="fill: #b40426; stroke: #b40426"/>
     </g>
    </g>
    <g id="text_14">
     <!-- en -->
     <g transform="translate(526.2825 68.272812) scale(0.1 -0.1)">
      <use xlink:href="#DejaVuSans-65"/>
      <use xlink:href="#DejaVuSans-6e" transform="translate(61.523438 0)"/>
     </g>
    </g>
   </g>
  </g>
 </g>
 <defs>
  <clipPath id="pf8cbdc1996">
   <rect x="20.5625" y="22.318125" width="446.4" height="332.64"/>
  </clipPath>
 </defs>
</svg>
